<?xml version="1.0" standalone="no"?>
<!DOCTYPE svg PUBLIC "-//W3C//DTD SVG 20010904//EN"
 "http://www.w3.org/TR/2001/REC-SVG-20010904/DTD/svg10.dtd">
<svg version="1.0" xmlns="http://www.w3.org/2000/svg"
 width="369.000000pt" height="369.000000pt" viewBox="0 0 369.000000 369.000000"
 preserveAspectRatio="xMidYMid meet">
<metadata>
Created by potrace 1.11, written by Peter Selinger 2001-2013
</metadata>
<g transform="translate(0.000000,369.000000) scale(0.100000,-0.100000)"
fill="#000000" stroke="none">
<path d="M3409 3509 c-82 -25 -173 -60 -214 -79 -11 -5 -63 -25 -115 -44 -52
-19 -111 -41 -130 -49 -59 -24 -75 -30 -85 -33 -53 -14 -397 -178 -505 -241
-94 -54 -237 -137 -255 -147 -11 -6 -36 -23 -55 -38 -27 -20 -40 -24 -53 -17
-17 10 -19 8 -21 -21 -1 -8 -6 -15 -11 -15 -5 0 -10 7 -11 15 -1 8 -2 23 -2
32 -2 22 -61 66 -109 84 -21 7 -29 13 -19 14 10 0 45 -10 77 -21 56 -20 60
-21 84 -5 48 32 49 83 3 133 -14 15 -30 21 -50 19 -22 -3 -37 4 -58 26 -33 32
-62 32 -92 -3 -14 -16 -35 -25 -70 -28 -18 -2 -58 -59 -58 -83 0 -33 45 -72
75 -64 11 3 31 8 45 12 23 5 24 4 8 -9 -20 -16 -51 -95 -42 -108 3 -5 -1 -9
-9 -9 -8 0 -14 8 -13 18 1 12 -8 18 -27 20 -16 2 -66 25 -111 52 -138 81 -431
206 -613 261 -37 11 -122 38 -188 59 -108 34 -201 61 -215 63 -3 0 -41 13 -85
29 -44 16 -87 31 -95 33 -8 3 -49 14 -90 25 -41 12 -105 22 -141 22 -58 1 -71
-3 -103 -27 -44 -33 -61 -84 -51 -150 6 -41 15 -56 68 -109 34 -33 86 -76 115
-93 60 -36 213 -99 263 -108 18 -3 37 -9 43 -13 6 -3 16 -8 21 -9 24 -6 202
-43 230 -48 16 -2 41 -7 55 -10 14 -3 44 -8 66 -11 23 -2 53 -7 65 -10 13 -2
44 -7 69 -9 25 -3 79 -11 120 -17 107 -16 370 -16 470 -1 101 16 159 4 161
-31 1 -45 10 -71 32 -94 20 -21 22 -33 21 -155 0 -117 -4 -175 -18 -282 -3
-16 -7 -66 -11 -110 -4 -44 -9 -96 -11 -115 -3 -19 -7 -219 -9 -445 -1 -225
-6 -468 -10 -540 -3 -71 -8 -179 -11 -240 -2 -60 -6 -128 -8 -150 -2 -22 -7
-90 -10 -152 -4 -62 -9 -122 -12 -135 -3 -13 -8 -57 -11 -99 -6 -81 6 -109 47
-109 24 0 70 20 71 32 2 10 3 14 18 68 20 70 20 88 -3 109 -14 14 -21 31 -20
53 3 61 15 239 20 307 13 167 24 546 29 971 2 162 6 318 9 345 3 28 8 75 11
105 2 30 7 69 10 85 23 148 34 386 21 465 -12 70 61 138 127 119 54 -16 177
-31 277 -33 103 -3 272 16 435 50 360 73 603 183 771 349 116 114 176 231 149
292 -5 10 -9 22 -9 27 -1 5 -14 18 -29 30 -40 30 -116 28 -218 -5z m209 -46
c61 -81 -157 -325 -395 -443 -130 -64 -392 -143 -583 -176 -25 -4 -47 -8 -50
-9 -3 -1 -32 -5 -65 -9 -33 -4 -71 -10 -85 -12 -50 -9 -232 -3 -328 10 -44 7
-51 10 -41 22 6 8 15 14 20 14 5 0 64 32 132 71 158 93 212 122 322 176 50 24
110 54 135 67 25 13 113 50 195 83 83 33 159 64 170 68 11 5 22 9 25 9 3 1 70
27 150 58 139 54 250 91 250 83 0 -2 11 2 25 9 32 17 104 5 123 -21z m-3361
-122 c29 -6 95 -24 149 -42 53 -17 101 -32 108 -33 6 -2 45 -13 86 -25 41 -12
107 -31 145 -43 324 -94 506 -164 785 -301 l105 -52 -45 -7 c-48 -8 -311 -11
-345 -4 -11 2 -51 7 -90 10 -38 4 -81 9 -95 11 -14 2 -44 7 -68 10 -24 3 -53
7 -65 10 -33 7 -77 14 -127 21 -50 6 -248 48 -295 62 -256 79 -455 220 -455
323 0 27 25 62 50 71 20 7 93 2 157 -11z"/>
<path d="M867 2734 c-2 -2 -147 -14 -247 -20 -36 -2 -78 -6 -95 -8 -16 -2 -64
-7 -105 -10 -78 -7 -210 -30 -245 -41 -116 -39 -165 -107 -117 -164 50 -60
230 -110 452 -126 287 -21 460 -18 658 10 64 9 74 12 186 41 55 14 108 27 117
29 8 2 35 12 60 23 24 10 63 27 87 37 104 44 128 153 25 114 -33 -13 -44 -36
-15 -33 37 5 -33 -42 -78 -51 -8 -2 -44 -14 -80 -28 -60 -22 -174 -54 -228
-63 -12 -2 -48 -8 -80 -14 -183 -31 -530 -34 -732 -5 -14 2 -47 6 -75 10 -96
12 -242 65 -260 95 -15 24 81 79 165 95 14 3 48 9 75 14 61 12 137 21 305 36
302 27 1008 17 1071 -15 8 -5 22 -5 30 0 21 14 -6 37 -51 45 -19 3 -48 8 -65
12 -16 3 -50 8 -75 10 -46 4 -679 10 -683 7z"/>
<path d="M2137 2713 c-2 -1 -27 -5 -57 -8 -62 -6 -110 -23 -110 -37 0 -6 19
-7 49 -3 61 8 207 13 431 14 220 1 357 -5 530 -24 30 -4 79 -8 108 -10 29 -3
56 -7 61 -9 4 -3 39 -8 77 -11 38 -3 80 -8 94 -10 14 -3 43 -7 64 -11 62 -9
168 -44 204 -66 63 -38 31 -81 -88 -116 -166 -49 -694 -65 -885 -26 -11 2 -33
6 -50 9 -93 14 -240 54 -320 87 -38 16 -83 33 -99 38 -58 18 -100 60 -60 60
25 0 6 18 -27 25 -48 11 -64 -11 -39 -52 32 -53 207 -126 430 -180 58 -14 119
-27 135 -28 17 -2 53 -6 80 -9 205 -22 253 -23 460 -12 157 8 221 14 255 21
14 3 43 7 65 11 125 17 235 86 219 138 -10 32 -45 66 -91 87 -41 19 -153 49
-203 54 -14 1 -45 6 -70 9 -81 12 -114 15 -175 21 -33 3 -82 8 -110 11 -172
19 -327 26 -608 28 -147 1 -269 1 -270 -1z"/>
</g>
</svg>
